# xmcd
#
# Track frame offsets: 
#        150
#        12580
#        21987
#        32454
#        44536
#        54990
#        65177
#        74234
#        87314
#        100583
#        110640
#        122037
#        131456
#        143955
#
# Disc length: 2038 seconds
#
# Revision: 0
# Processed by: cddbd v1.5.2PL0 Copyright (c) Steve Scherf et al.
# Submitted via: ExactAudioCopy v1.1
#
DISCID=cf07f40e
DTITLE=Buck Owens and his Buckaroos - Your Tender Loving Care (1967)
DYEAR=2012
DGENRE=Country
TTITLE0=Your Tender Loving Care
TTITLE1=Song And Dance
TTITLE2=Only You (Can Break My Heart)
TTITLE3=What A Liar I Am
TTITLE4=Someone With No One To Love
TTITLE5=Rocks In My Head
TTITLE6=Sam's Place
TTITLE7=If I Had You Back Again
TTITLE8=House Of Memories
TTITLE9=Only You And You Alone
TTITLE10=Don't Ever Tell Me Goodbye
TTITLE11=You Mad A Monkey Out Of Me
TTITLE12=Your Tender Loving Care (Mono Single Version)
TTITLE13=Sam's Place (Mono Single Version)
EXTD=
EXTT0=
EXTT1=
EXTT2=
EXTT3=
EXTT4=
EXTT5=
EXTT6=
EXTT7=
EXTT8=
EXTT9=
EXTT10=
EXTT11=
EXTT12=
EXTT13=
PLAYORDER=
